<svg xmlns="http://www.w3.org/2000/svg" xmlns:xlink="http://www.w3.org/1999/xlink" xmlns:inkscape="http://www.inkscape.org/namespaces/inkscape" version="1.1" width="1684" height="2384" viewBox="0 0 1684 2384">
<defs>
<clipPath id="clip_0">
<path transform="matrix(.12,0,0,-.12,0,2384)" d="M3854 6991H10177V12874H3854V6991"/>
</clipPath>
</defs>
<g clip-path="url(#clip_0)">
<g inkscape:groupmode="layer" inkscape:label="PDF_0">
<path transform="matrix(.12,0,0,-.12,0,2384)" stroke-width="6" stroke-linecap="round" stroke-linejoin="round" fill="none" stroke="#000000" d="M9077 11018V8253"/>
<path transform="matrix(.12,0,0,-.12,0,2384)" stroke-width="6" stroke-linecap="round" stroke-linejoin="round" fill="none" stroke="#000000" d="M7068 8253V11018"/>
<path transform="matrix(.12,0,0,-.12,0,2384)" stroke-width="6" stroke-linecap="round" stroke-linejoin="round" fill="none" stroke="#000000" d="M7221 10379.5C7221 10399.106 7205.106 10415 7185.5 10415 7165.894 10415 7150 10399.106 7150 10379.5 7150 10359.894 7165.894 10344 7185.5 10344 7205.106 10344 7221 10359.894 7221 10379.5"/>
<path transform="matrix(.12,0,0,-.12,0,2384)" stroke-width="6" stroke-linecap="round" stroke-linejoin="round" fill="none" stroke="#000000" d="M8993 10379.5C8993 10399.106 8977.106 10415 8957.5 10415 8937.894 10415 8922 10399.106 8922 10379.5 8922 10359.894 8937.894 10344 8957.5 10344 8977.106 10344 8993 10359.894 8993 10379.5"/>
<path transform="matrix(.12,0,0,-.12,0,2384)" stroke-width="6" stroke-linecap="round" stroke-linejoin="round" fill="none" stroke="#000000" d="M7221 9670.5C7221 9690.106 7205.106 9706 7185.5 9706 7165.894 9706 7150 9690.106 7150 9670.5 7150 9650.894 7165.894 9635 7185.5 9635 7205.106 9635 7221 9650.894 7221 9670.5"/>
<path transform="matrix(.12,0,0,-.12,0,2384)" stroke-width="6" stroke-linecap="round" stroke-linejoin="round" fill="none" stroke="#000000" d="M8993 9670.5C8993 9690.106 8977.106 9706 8957.5 9706 8937.894 9706 8922 9690.106 8922 9670.5 8922 9650.894 8937.894 9635 8957.5 9635 8977.106 9635 8993 9650.894 8993 9670.5"/>
<path transform="matrix(.12,0,0,-.12,0,2384)" stroke-width="6" stroke-linecap="round" stroke-linejoin="round" fill="none" stroke="#000000" d="M7221 8962.5C7221 8982.106 7205.106 8998 7185.5 8998 7165.894 8998 7150 8982.106 7150 8962.5 7150 8942.894 7165.894 8927 7185.5 8927 7205.106 8927 7221 8942.894 7221 8962.5"/>
<path transform="matrix(.12,0,0,-.12,0,2384)" stroke-width="6" stroke-linecap="round" stroke-linejoin="round" fill="none" stroke="#000000" d="M8993 8962.5C8993 8982.106 8977.106 8998 8957.5 8998 8937.894 8998 8922 8982.106 8922 8962.5 8922 8942.894 8937.894 8927 8957.5 8927 8977.106 8927 8993 8942.894 8993 8962.5"/>
<path transform="matrix(.12,0,0,-.12,0,2384)" stroke-width="6" stroke-linecap="round" stroke-linejoin="round" fill="none" stroke="#000000" d="M7221 8253.5C7221 8273.106 7205.106 8289 7185.5 8289 7165.894 8289 7150 8273.106 7150 8253.5 7150 8233.894 7165.894 8218 7185.5 8218 7205.106 8218 7221 8233.894 7221 8253.5"/>
<path transform="matrix(.12,0,0,-.12,0,2384)" stroke-width="6" stroke-linecap="round" stroke-linejoin="round" fill="none" stroke="#000000" d="M8993 8253.5C8993 8273.106 8977.106 8289 8957.5 8289 8937.894 8289 8922 8273.106 8922 8253.5 8922 8233.894 8937.894 8218 8957.5 8218 8977.106 8218 8993 8233.894 8993 8253.5"/>
</g>
<g inkscape:groupmode="layer" inkscape:label="0">
<path transform="matrix(.12,0,0,-.12,0,2384)" stroke-width="6" stroke-linecap="round" stroke-linejoin="round" fill="none" stroke="#000000" d="M7068 8253 7231 7596"/>
<path transform="matrix(.12,0,0,-.12,0,2384)" stroke-width="6" stroke-linecap="round" stroke-linejoin="round" fill="none" stroke="#000000" d="M9077 8253 8911 7595"/>
<path transform="matrix(.12,0,0,-.12,0,2384)" stroke-width="6" stroke-linecap="round" stroke-linejoin="round" fill="none" stroke="#000000" d="M8104 7335 8784 7473"/>
<path transform="matrix(.12,0,0,-.12,0,2384)" stroke-width="6" stroke-linecap="round" stroke-linejoin="round" fill="none" stroke="#000000" d="M8784.41 7473.305C8846.86 7485.9768 8896.488 7533.3767 8912.013 7595.179"/>
<path transform="matrix(.12,0,0,-.12,0,2384)" stroke-width="6" stroke-linecap="round" stroke-linejoin="round" fill="none" stroke="#000000" d="M7359 7473 8038 7335"/>
<path transform="matrix(.12,0,0,-.12,0,2384)" stroke-width="6" stroke-linecap="round" stroke-linejoin="round" fill="none" stroke="#000000" d="M8038.5905 7335.305C8060.3088 7330.8986 8082.6916 7330.8986 8104.4099 7335.305"/>
<path transform="matrix(.12,0,0,-.12,0,2384)" stroke-width="6" stroke-linecap="round" stroke-linejoin="round" fill="none" stroke="#000000" d="M7230.841 7595.764C7246.193 7533.694 7295.927 7486.0197 7358.5905 7473.305"/>
<path transform="matrix(.12,0,0,-.12,0,2384)" stroke-width="6" stroke-linecap="round" stroke-linejoin="round" fill="none" stroke="#000000" d="M8107 7411.5C8107 7431.106 8091.106 7447 8071.5 7447 8051.894 7447 8036 7431.106 8036 7411.5 8036 7391.894 8051.894 7376 8071.5 7376 8091.106 7376 8107 7391.894 8107 7411.5"/>
<path transform="matrix(.12,0,0,-.12,0,2384)" stroke-width="6" stroke-linecap="round" stroke-linejoin="round" fill="none" stroke="#000000" d="M7068 11018V11633"/>
<path transform="matrix(.12,0,0,-.12,0,2384)" stroke-width="6" stroke-linecap="round" stroke-linejoin="round" fill="none" stroke="#000000" d="M9077 11018V11633"/>
<path transform="matrix(.12,0,0,-.12,0,2384)" stroke-width="6" stroke-linecap="round" stroke-linejoin="round" fill="none" stroke="#000000" d="M7068 11633 7258 12303"/>
<path transform="matrix(.12,0,0,-.12,0,2384)" stroke-width="6" stroke-linecap="round" stroke-linejoin="round" fill="none" stroke="#000000" d="M7345.082 12387.018C7302.8557 12377.361 7269.262 12345.433 7257.473 12303.751"/>
<path transform="matrix(.12,0,0,-.12,0,2384)" stroke-width="6" stroke-linecap="round" stroke-linejoin="round" fill="none" stroke="#000000" d="M7345 12386 8055 12548"/>
<path transform="matrix(.12,0,0,-.12,0,2384)" stroke-width="6" stroke-linecap="round" stroke-linejoin="round" fill="none" stroke="#000000" d="M8087 12548 8797 12386"/>
<path transform="matrix(.12,0,0,-.12,0,2384)" stroke-width="6" stroke-linecap="round" stroke-linejoin="round" fill="none" stroke="#000000" d="M8885.405 12304.177C8873.504 12345.662 8839.99 12377.396 8797.918 12387.018"/>
<path transform="matrix(.12,0,0,-.12,0,2384)" stroke-width="6" stroke-linecap="round" stroke-linejoin="round" fill="none" stroke="#000000" d="M8087.217 12548.226C8076.8728 12550.592 8066.1276 12550.592 8055.783 12548.226"/>
<path transform="matrix(.12,0,0,-.12,0,2384)" stroke-width="6" stroke-linecap="round" stroke-linejoin="round" fill="none" stroke="#000000" d="M8884 12303 9077 11633"/>
<path transform="matrix(.12,0,0,-.12,0,2384)" stroke-width="6" stroke-linecap="round" stroke-linejoin="round" fill="none" stroke="#000000" d="M8107 12460.5C8107 12480.106 8091.106 12496 8071.5 12496 8051.894 12496 8036 12480.106 8036 12460.5 8036 12440.894 8051.894 12425 8071.5 12425 8091.106 12425 8107 12440.894 8107 12460.5"/>
<path transform="matrix(.12,0,0,-.12,0,2384)" stroke-width="6" stroke-linecap="round" stroke-linejoin="round" fill="none" stroke="#000000" d="M8993 11796.5C8993 11816.106 8977.106 11832 8957.5 11832 8937.894 11832 8922 11816.106 8922 11796.5 8922 11776.894 8937.894 11761 8957.5 11761 8977.106 11761 8993 11776.894 8993 11796.5"/>
<path transform="matrix(.12,0,0,-.12,0,2384)" stroke-width="6" stroke-linecap="round" stroke-linejoin="round" fill="none" stroke="#000000" d="M8993 11088.5C8993 11108.106 8977.106 11124 8957.5 11124 8937.894 11124 8922 11108.106 8922 11088.5 8922 11068.894 8937.894 11053 8957.5 11053 8977.106 11053 8993 11068.894 8993 11088.5"/>
<path transform="matrix(.12,0,0,-.12,0,2384)" stroke-width="6" stroke-linecap="round" stroke-linejoin="round" fill="none" stroke="#000000" d="M7218 11088.5C7218 11108.106 7202.106 11124 7182.5 11124 7162.894 11124 7147 11108.106 7147 11088.5 7147 11068.894 7162.894 11053 7182.5 11053 7202.106 11053 7218 11068.894 7218 11088.5"/>
<path transform="matrix(.12,0,0,-.12,0,2384)" stroke-width="6" stroke-linecap="round" stroke-linejoin="round" fill="none" stroke="#000000" d="M7218 11796.5C7218 11816.106 7202.106 11832 7182.5 11832 7162.894 11832 7147 11816.106 7147 11796.5 7147 11776.894 7162.894 11761 7182.5 11761 7202.106 11761 7218 11776.894 7218 11796.5"/>
<path transform="matrix(.12,0,0,-.12,0,2384)" stroke-width="6" stroke-linecap="round" stroke-linejoin="round" fill="none" stroke="#000000" d="M7512 12000H8621"/>
<path transform="matrix(.12,0,0,-.12,0,2384)" stroke-width="6" stroke-linecap="round" stroke-linejoin="round" fill="none" stroke="#000000" d="M7512.5 12001C7473.8376 12001 7437.606 11982.139 7415.43 11950.469 7393.2546 11918.798 7387.923 11878.3 7401.147 11841.97"/>
<path transform="matrix(.12,0,0,-.12,0,2384)" stroke-width="6" stroke-linecap="round" stroke-linejoin="round" fill="none" stroke="#000000" d="M8025 8447 7496 8003"/>
<path transform="matrix(.12,0,0,-.12,0,2384)" stroke-width="6" stroke-linecap="round" stroke-linejoin="round" fill="none" stroke="#000000" d="M7542 7878H8593"/>
<path transform="matrix(.12,0,0,-.12,0,2384)" stroke-width="6" stroke-linecap="round" stroke-linejoin="round" fill="none" stroke="#000000" d="M8593.5 7879C8623.059 7879 8649.479 7897.439 8659.674 7925.1838 8669.869 7952.928 8661.674 7984.087 8639.148 8003.226"/>
<path transform="matrix(.12,0,0,-.12,0,2384)" stroke-width="6" stroke-linecap="round" stroke-linejoin="round" fill="none" stroke="#000000" d="M7497.182 8003.5056C7474.479 7984.454 7466.1149 7953.2375 7476.252 7925.3869 7486.389 7897.5368 7512.8625 7879 7542.5 7879"/>
<path transform="matrix(.12,0,0,-.12,0,2384)" stroke-width="6" stroke-linecap="round" stroke-linejoin="round" fill="none" stroke="#000000" d="M8117 8446 8639 8003"/>
<path transform="matrix(.12,0,0,-.12,0,2384)" stroke-width="6" stroke-linecap="round" stroke-linejoin="round" fill="none" stroke="#000000" d="M8117.1486 8446.227C8090.9499 8468.485 8052.5168 8468.604 8026.182 8446.505"/>
<path transform="matrix(.12,0,0,-.12,0,2384)" stroke-width="6" stroke-linecap="round" stroke-linejoin="round" fill="none" stroke="#000000" d="M7537 10136.5C7537 10156.106 7521.106 10172 7501.5 10172 7481.894 10172 7466 10156.106 7466 10136.5 7466 10116.894 7481.894 10101 7501.5 10101 7521.106 10101 7537 10116.894 7537 10136.5"/>
<path transform="matrix(.12,0,0,-.12,0,2384)" stroke-width="6" stroke-linecap="round" stroke-linejoin="round" fill="none" stroke="#000000" d="M8677 10106.5C8677 10126.106 8661.106 10142 8641.5 10142 8621.894 10142 8606 10126.106 8606 10106.5 8606 10086.894 8621.894 10071 8641.5 10071 8661.106 10071 8677 10086.894 8677 10106.5"/>
<path transform="matrix(.12,0,0,-.12,0,2384)" stroke-width="6" stroke-linecap="round" stroke-linejoin="round" fill="none" stroke="#000000" d="M7537 8186.5C7537 8206.106 7521.106 8222 7501.5 8222 7481.894 8222 7466 8206.106 7466 8186.5 7466 8166.894 7481.894 8151 7501.5 8151 7521.106 8151 7537 8166.894 7537 8186.5"/>
<path transform="matrix(.12,0,0,-.12,0,2384)" stroke-width="6" stroke-linecap="round" stroke-linejoin="round" fill="none" stroke="#000000" d="M8677 8337.5C8677 8357.106 8661.106 8373 8641.5 8373 8621.894 8373 8606 8357.106 8606 8337.5 8606 8317.894 8621.894 8302 8641.5 8302 8661.106 8302 8677 8317.894 8677 8337.5"/>
</g>
<g inkscape:groupmode="layer" inkscape:label="PDF_0">
<path transform="matrix(.12,0,0,-.12,0,2384)" stroke-width="6" stroke-linecap="round" stroke-linejoin="round" fill="none" stroke="#000000" d="M6553 11017V8251"/>
<path transform="matrix(.12,0,0,-.12,0,2384)" stroke-width="6" stroke-linecap="round" stroke-linejoin="round" fill="none" stroke="#000000" d="M4545 8251V11017"/>
<path transform="matrix(.12,0,0,-.12,0,2384)" stroke-width="6" stroke-linecap="round" stroke-linejoin="round" fill="none" stroke="#000000" d="M4698 10378.5C4698 10398.106 4682.106 10414 4662.5 10414 4642.894 10414 4627 10398.106 4627 10378.5 4627 10358.894 4642.894 10343 4662.5 10343 4682.106 10343 4698 10358.894 4698 10378.5"/>
<path transform="matrix(.12,0,0,-.12,0,2384)" stroke-width="6" stroke-linecap="round" stroke-linejoin="round" fill="none" stroke="#000000" d="M6469 10378.5C6469 10398.106 6453.106 10414 6433.5 10414 6413.894 10414 6398 10398.106 6398 10378.5 6398 10358.894 6413.894 10343 6433.5 10343 6453.106 10343 6469 10358.894 6469 10378.5"/>
<path transform="matrix(.12,0,0,-.12,0,2384)" stroke-width="6" stroke-linecap="round" stroke-linejoin="round" fill="none" stroke="#000000" d="M4698 9669.5C4698 9689.106 4682.106 9705 4662.5 9705 4642.894 9705 4627 9689.106 4627 9669.5 4627 9649.894 4642.894 9634 4662.5 9634 4682.106 9634 4698 9649.894 4698 9669.5"/>
<path transform="matrix(.12,0,0,-.12,0,2384)" stroke-width="6" stroke-linecap="round" stroke-linejoin="round" fill="none" stroke="#000000" d="M6469 9669.5C6469 9689.106 6453.106 9705 6433.5 9705 6413.894 9705 6398 9689.106 6398 9669.5 6398 9649.894 6413.894 9634 6433.5 9634 6453.106 9634 6469 9649.894 6469 9669.5"/>
<path transform="matrix(.12,0,0,-.12,0,2384)" stroke-width="6" stroke-linecap="round" stroke-linejoin="round" fill="none" stroke="#000000" d="M4698 8961.5C4698 8981.106 4682.106 8997 4662.5 8997 4642.894 8997 4627 8981.106 4627 8961.5 4627 8941.894 4642.894 8926 4662.5 8926 4682.106 8926 4698 8941.894 4698 8961.5"/>
<path transform="matrix(.12,0,0,-.12,0,2384)" stroke-width="6" stroke-linecap="round" stroke-linejoin="round" fill="none" stroke="#000000" d="M6469 8961.5C6469 8981.106 6453.106 8997 6433.5 8997 6413.894 8997 6398 8981.106 6398 8961.5 6398 8941.894 6413.894 8926 6433.5 8926 6453.106 8926 6469 8941.894 6469 8961.5"/>
<path transform="matrix(.12,0,0,-.12,0,2384)" stroke-width="6" stroke-linecap="round" stroke-linejoin="round" fill="none" stroke="#000000" d="M4698 8252.5C4698 8272.106 4682.106 8288 4662.5 8288 4642.894 8288 4627 8272.106 4627 8252.5 4627 8232.894 4642.894 8217 4662.5 8217 4682.106 8217 4698 8232.894 4698 8252.5"/>
<path transform="matrix(.12,0,0,-.12,0,2384)" stroke-width="6" stroke-linecap="round" stroke-linejoin="round" fill="none" stroke="#000000" d="M6469 8252.5C6469 8272.106 6453.106 8288 6433.5 8288 6413.894 8288 6398 8272.106 6398 8252.5 6398 8232.894 6413.894 8217 6433.5 8217 6453.106 8217 6469 8232.894 6469 8252.5"/>
</g>
<g inkscape:groupmode="layer" inkscape:label="0">
<path transform="matrix(.12,0,0,-.12,0,2384)" stroke-width="6" stroke-linecap="round" stroke-linejoin="round" fill="none" stroke="#000000" d="M4545 8251 4707 7594"/>
<path transform="matrix(.12,0,0,-.12,0,2384)" stroke-width="6" stroke-linecap="round" stroke-linejoin="round" fill="none" stroke="#000000" d="M6553 8251 6387 7594"/>
<path transform="matrix(.12,0,0,-.12,0,2384)" stroke-width="6" stroke-linecap="round" stroke-linejoin="round" fill="none" stroke="#000000" d="M5580 7334 6260 7472"/>
<path transform="matrix(.12,0,0,-.12,0,2384)" stroke-width="6" stroke-linecap="round" stroke-linejoin="round" fill="none" stroke="#000000" d="M6260.4099 7472.305C6322.86 7484.9768 6372.4885 7532.3767 6388.013 7594.179"/>
<path transform="matrix(.12,0,0,-.12,0,2384)" stroke-width="6" stroke-linecap="round" stroke-linejoin="round" fill="none" stroke="#000000" d="M4835 7472 5514 7334"/>
<path transform="matrix(.12,0,0,-.12,0,2384)" stroke-width="6" stroke-linecap="round" stroke-linejoin="round" fill="none" stroke="#000000" d="M5514.5905 7334.305C5536.3088 7329.8986 5558.6916 7329.8986 5580.4099 7334.305"/>
<path transform="matrix(.12,0,0,-.12,0,2384)" stroke-width="6" stroke-linecap="round" stroke-linejoin="round" fill="none" stroke="#000000" d="M4707.841 7594.764C4723.193 7532.694 4772.927 7485.0197 4835.5905 7472.305"/>
<path transform="matrix(.12,0,0,-.12,0,2384)" stroke-width="6" stroke-linecap="round" stroke-linejoin="round" fill="none" stroke="#000000" d="M5583 7410.5C5583 7430.106 5567.106 7446 5547.5 7446 5527.894 7446 5512 7430.106 5512 7410.5 5512 7390.894 5527.894 7375 5547.5 7375 5567.106 7375 5583 7390.894 5583 7410.5"/>
<path transform="matrix(.12,0,0,-.12,0,2384)" stroke-width="6" stroke-linecap="round" stroke-linejoin="round" fill="none" stroke="#000000" d="M4545 11017V11632"/>
<path transform="matrix(.12,0,0,-.12,0,2384)" stroke-width="6" stroke-linecap="round" stroke-linejoin="round" fill="none" stroke="#000000" d="M6553 11017V11632"/>
<path transform="matrix(.12,0,0,-.12,0,2384)" stroke-width="6" stroke-linecap="round" stroke-linejoin="round" fill="none" stroke="#000000" d="M4545 11632 4734 12301"/>
<path transform="matrix(.12,0,0,-.12,0,2384)" stroke-width="6" stroke-linecap="round" stroke-linejoin="round" fill="none" stroke="#000000" d="M4822.082 12385.018C4779.8557 12375.361 4746.262 12343.433 4734.473 12301.751"/>
<path transform="matrix(.12,0,0,-.12,0,2384)" stroke-width="6" stroke-linecap="round" stroke-linejoin="round" fill="none" stroke="#000000" d="M4821 12384 5531 12547"/>
<path transform="matrix(.12,0,0,-.12,0,2384)" stroke-width="6" stroke-linecap="round" stroke-linejoin="round" fill="none" stroke="#000000" d="M5563 12547 6273 12384"/>
<path transform="matrix(.12,0,0,-.12,0,2384)" stroke-width="6" stroke-linecap="round" stroke-linejoin="round" fill="none" stroke="#000000" d="M6361.4055 12302.177C6349.5046 12343.662 6315.9899 12375.396 6273.918 12385.018"/>
<path transform="matrix(.12,0,0,-.12,0,2384)" stroke-width="6" stroke-linecap="round" stroke-linejoin="round" fill="none" stroke="#000000" d="M5563.217 12547.226C5552.8728 12549.592 5542.1276 12549.592 5531.783 12547.226"/>
<path transform="matrix(.12,0,0,-.12,0,2384)" stroke-width="6" stroke-linecap="round" stroke-linejoin="round" fill="none" stroke="#000000" d="M6361 12302 6553 11632"/>
<path transform="matrix(.12,0,0,-.12,0,2384)" stroke-width="6" stroke-linecap="round" stroke-linejoin="round" fill="none" stroke="#000000" d="M5583 12459.5C5583 12479.106 5567.106 12495 5547.5 12495 5527.894 12495 5512 12479.106 5512 12459.5 5512 12439.894 5527.894 12424 5547.5 12424 5567.106 12424 5583 12439.894 5583 12459.5"/>
<path transform="matrix(.12,0,0,-.12,0,2384)" stroke-width="6" stroke-linecap="round" stroke-linejoin="round" fill="none" stroke="#000000" d="M6469 11795.5C6469 11815.106 6453.106 11831 6433.5 11831 6413.894 11831 6398 11815.106 6398 11795.5 6398 11775.894 6413.894 11760 6433.5 11760 6453.106 11760 6469 11775.894 6469 11795.5"/>
<path transform="matrix(.12,0,0,-.12,0,2384)" stroke-width="6" stroke-linecap="round" stroke-linejoin="round" fill="none" stroke="#000000" d="M6469 11087.5C6469 11107.106 6453.106 11123 6433.5 11123 6413.894 11123 6398 11107.106 6398 11087.5 6398 11067.894 6413.894 11052 6433.5 11052 6453.106 11052 6469 11067.894 6469 11087.5"/>
<path transform="matrix(.12,0,0,-.12,0,2384)" stroke-width="6" stroke-linecap="round" stroke-linejoin="round" fill="none" stroke="#000000" d="M4695 11087.5C4695 11107.106 4679.106 11123 4659.5 11123 4639.894 11123 4624 11107.106 4624 11087.5 4624 11067.894 4639.894 11052 4659.5 11052 4679.106 11052 4695 11067.894 4695 11087.5"/>
<path transform="matrix(.12,0,0,-.12,0,2384)" stroke-width="6" stroke-linecap="round" stroke-linejoin="round" fill="none" stroke="#000000" d="M4695 11795.5C4695 11815.106 4679.106 11831 4659.5 11831 4639.894 11831 4624 11815.106 4624 11795.5 4624 11775.894 4639.894 11760 4659.5 11760 4679.106 11760 4695 11775.894 4695 11795.5"/>
<path transform="matrix(.12,0,0,-.12,0,2384)" stroke-width="6" stroke-linecap="round" stroke-linejoin="round" fill="none" stroke="#000000" d="M6177 10122.5C6177 10161.437 6145.436 10193 6106.5 10193"/>
<path transform="matrix(.12,0,0,-.12,0,2384)" stroke-width="6" stroke-linecap="round" stroke-linejoin="round" fill="none" stroke="#000000" d="M6177 10122V8138"/>
<path transform="matrix(.12,0,0,-.12,0,2384)" stroke-width="6" stroke-linecap="round" stroke-linejoin="round" fill="none" stroke="#000000" d="M6106.5 8068C6145.436 8068 6177 8099.564 6177 8138.5"/>
<path transform="matrix(.12,0,0,-.12,0,2384)" stroke-width="6" stroke-linecap="round" stroke-linejoin="round" fill="none" stroke="#000000" d="M6106 8067H4988"/>
<path transform="matrix(.12,0,0,-.12,0,2384)" stroke-width="6" stroke-linecap="round" stroke-linejoin="round" fill="none" stroke="#000000" d="M4918 8138.5C4918 8099.564 4949.564 8068 4988.5 8068"/>
<path transform="matrix(.12,0,0,-.12,0,2384)" stroke-width="6" stroke-linecap="round" stroke-linejoin="round" fill="none" stroke="#000000" d="M4917 8138V10122"/>
<path transform="matrix(.12,0,0,-.12,0,2384)" stroke-width="6" stroke-linecap="round" stroke-linejoin="round" fill="none" stroke="#000000" d="M4988.5 10193C4949.564 10193 4918 10161.437 4918 10122.5"/>
<path transform="matrix(.12,0,0,-.12,0,2384)" stroke-width="6" stroke-linecap="round" stroke-linejoin="round" fill="none" stroke="#000000" d="M4988 10193H6106"/>
<path transform="matrix(.12,0,0,-.12,0,2384)" stroke-width="6" stroke-linecap="round" stroke-linejoin="round" fill="none" stroke="#000000" d="M7401 11841 7909 10446"/>
<path transform="matrix(.12,0,0,-.12,0,2384)" stroke-width="6" stroke-linecap="round" stroke-linejoin="round" fill="none" stroke="#000000" d="M8732 11841 8217 10426"/>
<path transform="matrix(.12,0,0,-.12,0,2384)" stroke-width="6" stroke-linecap="round" stroke-linejoin="round" fill="none" stroke="#000000" d="M8732.854 11841.97C8746.077 11878.3 8740.746 11918.798 8718.57 11950.469 8696.395 11982.139 8660.162 12001 8621.5 12001"/>
<path transform="matrix(.12,0,0,-.12,0,2384)" stroke-width="6" stroke-linecap="round" stroke-linejoin="round" fill="none" stroke="#000000" d="M7909 10446 7916 10426"/>
<path transform="matrix(.12,0,0,-.12,0,2384)" stroke-width="6" stroke-linecap="round" stroke-linejoin="round" fill="none" stroke="#000000" d="M7917.252 10426.387C7927.389 10398.536 7953.8625 10380 7983.5 10380"/>
<path transform="matrix(.12,0,0,-.12,0,2384)" stroke-width="6" stroke-linecap="round" stroke-linejoin="round" fill="none" stroke="#000000" d="M7983 10379H8150"/>
<path transform="matrix(.12,0,0,-.12,0,2384)" stroke-width="6" stroke-linecap="round" stroke-linejoin="round" fill="none" stroke="#000000" d="M8150.5 10380C8180.1379 10380 8206.611 10398.536 8216.748 10426.387"/>
</g>
</g>
</svg>
