<?xml version="1.0" encoding="UTF-8" standalone="no"?>
<svg xmlns="http://www.w3.org/2000/svg" xmlns:xlink="http://www.w3.org/1999/xlink" width="85.000mm" height="220.881mm" viewBox="167.431503 -260.424805 85.000000 220.881454">
    <path transform="matrix(1.33325,0,0,-1.33325,-24.961411,-570.186646)" style="stroke:#000000;stroke-width:0.037502mm;fill:none" d="M208.057739,-280.976929L208.057739,-368.797424"/>
    <path transform="matrix(1.33325,0,0,-1.33325,-24.961411,-570.186646)" style="stroke:#000000;stroke-width:0.037502mm;fill:none" d="M144.303741,-368.797424L144.303741,-280.976929"/>
    <path transform="matrix(1.33325,0,0,-1.33325,-24.961411,-570.186646)" style="stroke:#000000;stroke-width:0.037502mm;fill:none" d="M149.161484,-301.249329C149.161484,-300.626801,148.656845,-300.122192,148.034363,-300.122192C147.41188,-300.122192,146.907242,-300.626801,146.907242,-301.249329C146.907242,-301.871826,147.41188,-302.376434,148.034363,-302.376434C148.656845,-302.376434,149.161484,-301.871826,149.161484,-301.249329z"/>
    <path transform="matrix(1.33325,0,0,-1.33325,-24.961411,-570.186646)" style="stroke:#000000;stroke-width:0.037502mm;fill:none" d="M205.390732,-301.249329C205.390732,-300.626801,204.886093,-300.122192,204.263611,-300.122192C203.641113,-300.122192,203.13649,-300.626801,203.13649,-301.249329C203.13649,-301.871826,203.641113,-302.376434,204.263611,-302.376434C204.886093,-302.376434,205.390732,-301.871826,205.390732,-301.249329z"/>
    <path transform="matrix(1.33325,0,0,-1.33325,-24.961411,-570.186646)" style="stroke:#000000;stroke-width:0.037502mm;fill:none" d="M149.161484,-323.760071C149.161484,-323.137573,148.656845,-322.632935,148.034363,-322.632935C147.41188,-322.632935,146.907242,-323.137573,146.907242,-323.760071C146.907242,-324.382568,147.41188,-324.887177,148.034363,-324.887177C148.656845,-324.887177,149.161484,-324.382568,149.161484,-323.760071z"/>
    <path transform="matrix(1.33325,0,0,-1.33325,-24.961411,-570.186646)" style="stroke:#000000;stroke-width:0.037502mm;fill:none" d="M205.390732,-323.760071C205.390732,-323.137573,204.886093,-322.632935,204.263611,-322.632935C203.641113,-322.632935,203.13649,-323.137573,203.13649,-323.760071C203.13649,-324.382568,203.641113,-324.887177,204.263611,-324.887177C204.886093,-324.887177,205.390732,-324.382568,205.390732,-323.760071z"/>
    <path transform="matrix(1.33325,0,0,-1.33325,-24.961411,-570.186646)" style="stroke:#000000;stroke-width:0.037502mm;fill:none" d="M149.161484,-346.239075C149.161484,-345.616547,148.656845,-345.111938,148.034363,-345.111938C147.41188,-345.111938,146.907242,-345.616547,146.907242,-346.239075C146.907242,-346.861572,147.41188,-347.36618,148.034363,-347.36618C148.656845,-347.36618,149.161484,-346.861572,149.161484,-346.239075z"/>
    <path transform="matrix(1.33325,0,0,-1.33325,-24.961411,-570.186646)" style="stroke:#000000;stroke-width:0.037502mm;fill:none" d="M205.390732,-346.239075C205.390732,-345.616547,204.886093,-345.111938,204.263611,-345.111938C203.641113,-345.111938,203.13649,-345.616547,203.13649,-346.239075C203.13649,-346.861572,203.641113,-347.36618,204.263611,-347.36618C204.886093,-347.36618,205.390732,-346.861572,205.390732,-346.239075z"/>
    <path transform="matrix(1.33325,0,0,-1.33325,-24.961411,-570.186646)" style="stroke:#000000;stroke-width:0.037502mm;fill:none" d="M149.161484,-368.749817C149.161484,-368.127319,148.656845,-367.622681,148.034363,-367.622681C147.41188,-367.622681,146.907242,-368.127319,146.907242,-368.749817C146.907242,-369.372314,147.41188,-369.876923,148.034363,-369.876923C148.656845,-369.876923,149.161484,-369.372314,149.161484,-368.749817z"/>
    <path transform="matrix(1.33325,0,0,-1.33325,-24.961411,-570.186646)" style="stroke:#000000;stroke-width:0.037502mm;fill:none" d="M205.390732,-368.749817C205.390732,-368.127319,204.886093,-367.622681,204.263611,-367.622681C203.641113,-367.622681,203.13649,-368.127319,203.13649,-368.749817C203.13649,-369.372314,203.641113,-369.876923,204.263611,-369.876923C204.886093,-369.876923,205.390732,-369.372314,205.390732,-368.749817z"/>
    <path transform="matrix(1.33325,0,0,-1.33325,-24.961411,-570.186646)" style="stroke:#000000;stroke-width:0.037502mm;fill:none" d="M144.303741,-368.797424L149.447235,-389.657166"/>
    <path transform="matrix(1.33325,0,0,-1.33325,-24.961411,-570.186646)" style="stroke:#000000;stroke-width:0.037502mm;fill:none" d="M208.057739,-368.797424L202.787231,-389.657166"/>
    <path transform="matrix(1.33325,0,0,-1.33325,-24.961411,-570.186646)" style="stroke:#000000;stroke-width:0.037502mm;fill:none" d="M177.164978,-397.91217L198.75499,-393.530701"/>
    <path transform="matrix(1.33325,0,0,-1.33325,-24.961411,-570.186646)" style="stroke:#000000;stroke-width:0.037502mm;fill:none" d="M198.76799,-393.520996C200.750778,-393.118683,202.326492,-391.613708,202.819397,-389.651489"/>
    <path transform="matrix(1.33325,0,0,-1.33325,-24.961411,-570.186646)" style="stroke:#000000;stroke-width:0.037502mm;fill:none" d="M153.51123,-393.530701L175.069489,-397.91217"/>
    <path transform="matrix(1.33325,0,0,-1.33325,-24.961411,-570.186646)" style="stroke:#000000;stroke-width:0.037502mm;fill:none" d="M175.088226,-397.902496C175.777786,-398.042419,176.488434,-398.042419,177.177994,-397.902496"/>
    <path transform="matrix(1.33325,0,0,-1.33325,-24.961411,-570.186646)" style="stroke:#000000;stroke-width:0.037502mm;fill:none" d="M149.473938,-389.632935C149.961365,-391.603638,151.540405,-393.11731,153.529984,-393.520996"/>
    <path transform="matrix(1.33325,0,0,-1.33325,-24.961411,-570.186646)" style="stroke:#000000;stroke-width:0.037502mm;fill:none" d="M177.260239,-395.483307C177.260239,-394.86084,176.7556,-394.356201,176.133102,-394.356201C175.51062,-394.356201,175.005981,-394.86084,175.005981,-395.483307C175.005981,-396.105774,175.51062,-396.610413,176.133102,-396.610413C176.7556,-396.610413,177.260239,-396.105774,177.260239,-395.483307z"/>
    <path transform="matrix(1.33325,0,0,-1.33325,-24.961411,-570.186646)" style="stroke:#000000;stroke-width:0.037502mm;fill:none" d="M144.303741,-280.976929L144.303741,-261.450684"/>
    <path transform="matrix(1.33325,0,0,-1.33325,-24.961411,-570.186646)" style="stroke:#000000;stroke-width:0.037502mm;fill:none" d="M208.057739,-280.976929L208.057739,-261.450684"/>
    <path transform="matrix(1.33325,0,0,-1.33325,-24.961411,-570.186646)" style="stroke:#000000;stroke-width:0.037502mm;fill:none" d="M144.303741,-261.450684L150.304489,-240.209961"/>
    <path transform="matrix(1.33325,0,0,-1.33325,-24.961411,-570.186646)" style="stroke:#000000;stroke-width:0.037502mm;fill:none" d="M153.101089,-237.542389C151.760391,-237.848969,150.693817,-238.862701,150.319504,-240.186096"/>
    <path transform="matrix(1.33325,0,0,-1.33325,-24.961411,-570.186646)" style="stroke:#000000;stroke-width:0.037502mm;fill:none" d="M153.066742,-237.574707L175.609238,-232.399445"/>
    <path transform="matrix(1.33325,0,0,-1.33325,-24.961411,-570.186646)" style="stroke:#000000;stroke-width:0.037502mm;fill:none" d="M176.625229,-232.399445L199.16774,-237.574707"/>
    <path transform="matrix(1.33325,0,0,-1.33325,-24.961411,-570.186646)" style="stroke:#000000;stroke-width:0.037502mm;fill:none" d="M201.974594,-240.172577C201.596741,-238.855438,200.532654,-237.84787,199.196884,-237.542389"/>
    <path transform="matrix(1.33325,0,0,-1.33325,-24.961411,-570.186646)" style="stroke:#000000;stroke-width:0.037502mm;fill:none" d="M176.632111,-232.392273C176.303696,-232.317169,175.962524,-232.317169,175.634094,-232.392273"/>
    <path transform="matrix(1.33325,0,0,-1.33325,-24.961411,-570.186646)" style="stroke:#000000;stroke-width:0.037502mm;fill:none" d="M201.961731,-240.178192L208.057739,-261.450684"/>
    <path transform="matrix(1.33325,0,0,-1.33325,-24.961411,-570.186646)" style="stroke:#000000;stroke-width:0.037502mm;fill:none" d="M177.260239,-235.177582C177.260239,-234.555054,176.7556,-234.050446,176.133102,-234.050446C175.51062,-234.050446,175.005981,-234.555054,175.005981,-235.177582C175.005981,-235.800079,175.51062,-236.304688,176.133102,-236.304688C176.7556,-236.304688,177.260239,-235.800079,177.260239,-235.177582z"/>
    <path transform="matrix(1.33325,0,0,-1.33325,-24.961411,-570.186646)" style="stroke:#000000;stroke-width:0.037502mm;fill:none" d="M205.390732,-256.259583C205.390732,-255.637054,204.886093,-255.132446,204.263611,-255.132446C203.641113,-255.132446,203.13649,-255.637054,203.13649,-256.259583C203.13649,-256.88208,203.641113,-257.386688,204.263611,-257.386688C204.886093,-257.386688,205.390732,-256.88208,205.390732,-256.259583z"/>
    <path transform="matrix(1.33325,0,0,-1.33325,-24.961411,-570.186646)" style="stroke:#000000;stroke-width:0.037502mm;fill:none" d="M205.390732,-278.738556C205.390732,-278.116058,204.886093,-277.61145,204.263611,-277.61145C203.641113,-277.61145,203.13649,-278.116058,203.13649,-278.738556C203.13649,-279.361084,203.641113,-279.865692,204.263611,-279.865692C204.886093,-279.865692,205.390732,-279.361084,205.390732,-278.738556z"/>
    <path transform="matrix(1.33325,0,0,-1.33325,-24.961411,-570.186646)" style="stroke:#000000;stroke-width:0.037502mm;fill:none" d="M149.066238,-278.738556C149.066238,-278.116058,148.5616,-277.61145,147.939117,-277.61145C147.31662,-277.61145,146.811981,-278.116058,146.811981,-278.738556C146.811981,-279.361084,147.31662,-279.865692,147.939117,-279.865692C148.5616,-279.865692,149.066238,-279.361084,149.066238,-278.738556z"/>
    <path transform="matrix(1.33325,0,0,-1.33325,-24.961411,-570.186646)" style="stroke:#000000;stroke-width:0.037502mm;fill:none" d="M149.066238,-256.259583C149.066238,-255.637054,148.5616,-255.132446,147.939117,-255.132446C147.31662,-255.132446,146.811981,-255.637054,146.811981,-256.259583C146.811981,-256.88208,147.31662,-257.386688,147.939117,-257.386688C148.5616,-257.386688,149.066238,-256.88208,149.066238,-256.259583z"/>
    <path transform="matrix(1.399825,0,0,-1.48147,-36.686523,-620.713562)" style="stroke:#000000;stroke-width:0.035719mm;fill:none" d="M196.119736,-309.377319C196.119736,-308.141083,195.117584,-307.138947,193.881363,-307.138947"/>
    <path transform="matrix(1.399825,0,0,-1.48147,-36.686523,-620.713562)" style="stroke:#000000;stroke-width:0.035719mm;fill:none" d="M196.119736,-309.393188L196.119736,-372.385193"/>
    <path transform="matrix(1.399825,0,0,-1.48147,-36.686523,-620.713562)" style="stroke:#000000;stroke-width:0.035719mm;fill:none" d="M193.881363,-374.607697C195.117584,-374.607697,196.119736,-373.60553,196.119736,-372.369324"/>
    <path transform="matrix(1.399825,0,0,-1.48147,-36.686523,-620.713562)" style="stroke:#000000;stroke-width:0.035719mm;fill:none" d="M193.865479,-374.639435L158.368988,-374.639435"/>
    <path transform="matrix(1.399825,0,0,-1.48147,-36.686523,-620.713562)" style="stroke:#000000;stroke-width:0.035719mm;fill:none" d="M156.146484,-372.369324C156.146484,-373.60553,157.148636,-374.607697,158.384857,-374.607697"/>
    <path transform="matrix(1.399825,0,0,-1.48147,-36.686523,-620.713562)" style="stroke:#000000;stroke-width:0.035719mm;fill:none" d="M156.114731,-372.385193L156.114731,-309.393188"/>
    <path transform="matrix(1.399825,0,0,-1.48147,-36.686523,-620.713562)" style="stroke:#000000;stroke-width:0.035719mm;fill:none" d="M158.384857,-307.138947C157.148636,-307.138947,156.146484,-308.141083,156.146484,-309.377319"/>
    <path transform="matrix(1.399825,0,0,-1.48147,-36.686523,-620.713562)" style="stroke:#000000;stroke-width:0.035719mm;fill:none" d="M158.368988,-307.138947L193.865479,-307.138947"/>
</svg>
