<svg xmlns="http://www.w3.org/2000/svg" xmlns:xlink="http://www.w3.org/1999/xlink" xmlns:inkscape="http://www.inkscape.org/namespaces/inkscape" version="1.1" width="1684" height="2384" viewBox="0 0 1684 2384">
<defs>
<clipPath id="clip_0">
<path transform="matrix(0,-.12,-.12,-0,1636,2370)" d="M273 10781H5792V13550H273V10781"/>
</clipPath>
</defs>
<g clip-path="url(#clip_0)">
<g inkscape:groupmode="layer" inkscape:label="0">
<path transform="matrix(.12,0,0,-.12,95.97998,1770.78)" stroke-width="6" stroke-linecap="round" stroke-linejoin="round" fill="none" stroke="#000000" d="M35.5 0C35.5 19.60611 19.60611 35.5 0 35.5-19.60611 35.5-35.5 19.60611-35.5 0-35.5-19.60611-19.60611-35.5 0-35.5 19.60611-35.5 35.5-19.60611 35.5 0"/>
<path transform="matrix(.12,0,0,-.12,280.18006,1770.78)" stroke-width="6" stroke-linecap="round" stroke-linejoin="round" fill="none" stroke="#000000" d="M35.5 0C35.5 19.60611 19.60611 35.5 0 35.5-19.60611 35.5-35.5 19.60611-35.5 0-35.5-19.60611-19.60611-35.5 0-35.5 19.60611-35.5 35.5-19.60611 35.5 0"/>
<path transform="matrix(0,-.12,-.12,-0,1636,2370)" stroke-width="6" stroke-linecap="round" stroke-linejoin="round" fill="none" stroke="#000000" d="M5229 12833V11298"/>
<path transform="matrix(0,-.12,-.12,-0,1636,2370)" stroke-width="6" stroke-linecap="round" stroke-linejoin="round" fill="none" stroke="#000000" d="M3760 13069H926"/>
<path transform="matrix(0,-.12,-.12,-0,1636,2370)" stroke-width="6" stroke-linecap="round" stroke-linejoin="round" fill="none" stroke="#000000" d="M3760 11061H926"/>
<path transform="matrix(0,-.12,-.12,-0,1636,2370)" stroke-width="6" stroke-linecap="round" stroke-linejoin="round" fill="none" stroke="#000000" d="M505 11180V12951"/>
<path transform="matrix(0,-.12,-.12,-0,1636,2370)" stroke-width="6" stroke-linecap="round" stroke-linejoin="round" fill="none" stroke="#000000" d="M5076 12985 5229 12833"/>
<path transform="matrix(0,-.12,-.12,-0,1636,2370)" stroke-width="6" stroke-linecap="round" stroke-linejoin="round" fill="none" stroke="#000000" d="M5076 11145 5229 11298"/>
<path transform="matrix(0,-.12,-.12,-0,1636,2370)" stroke-width="6" stroke-linecap="round" stroke-linejoin="round" fill="none" stroke="#000000" d="M4909 12985 4393 12469"/>
<path transform="matrix(.12,0,0,-.12,87.70007,1770.78)" stroke-width="6" stroke-linecap="round" stroke-linejoin="round" fill="none" stroke="#000000" d="M-83.79215 83.79215C-130.06929 37.51502-130.06929-37.51502-83.79215-83.79215"/>
<path transform="matrix(0,-.12,-.12,-0,1636,2370)" stroke-width="6" stroke-linecap="round" stroke-linejoin="round" fill="none" stroke="#000000" d="M4909 11145 4393 11661"/>
<path transform="matrix(.12,0,0,-.12,288.58009,1770.78)" stroke-width="6" stroke-linecap="round" stroke-linejoin="round" fill="none" stroke="#000000" d="M83.79215-83.79215C130.06929-37.51502 130.06929 37.51502 83.79215 83.79215"/>
<path transform="matrix(0,-.12,-.12,-0,1636,2370)" stroke-width="6" stroke-linecap="round" stroke-linejoin="round" fill="none" stroke="#000000" d="M4309 12434H4191"/>
<path transform="matrix(.12,0,0,-.12,129.70008,1867.02)" stroke-width="6" stroke-linecap="round" stroke-linejoin="round" fill="none" stroke="#000000" d="M58.6554-102.96502C95.65412-81.8882 118.5-42.58096 118.5 0"/>
<path transform="matrix(.12,0,0,-.12,129.70008,1852.86)" stroke-width="6" stroke-linecap="round" stroke-linejoin="round" fill="none" stroke="#000000" d="M118.5 0C118.5 31.42816 106.01521 61.56909 83.79215 83.79215"/>
<path transform="matrix(0,-.12,-.12,-0,1636,2370)" stroke-width="6" stroke-linecap="round" stroke-linejoin="round" fill="none" stroke="#000000" d="M4309 11696H4191"/>
<path transform="matrix(.12,0,0,-.12,246.58008,1867.02)" stroke-width="6" stroke-linecap="round" stroke-linejoin="round" fill="none" stroke="#000000" d="M-118.5 0C-118.5-42.58096-95.65412-81.8882-58.6554-102.96502"/>
<path transform="matrix(.12,0,0,-.12,246.58008,1852.86)" stroke-width="6" stroke-linecap="round" stroke-linejoin="round" fill="none" stroke="#000000" d="M-83.79215 83.79215C-106.01521 61.56909-118.5 31.42816-118.5 0"/>
<path transform="matrix(0,-.12,-.12,-0,1636,2370)" stroke-width="6" stroke-linecap="round" stroke-linejoin="round" fill="none" stroke="#000000" d="M4088 12494 3760 13069"/>
<path transform="matrix(0,-.12,-.12,-0,1636,2370)" stroke-width="6" stroke-linecap="round" stroke-linejoin="round" fill="none" stroke="#000000" d="M3760 11061 4088 11636"/>
<path transform="matrix(.12,0,0,-.12,81.82007,2003.7)" stroke-width="6" stroke-linecap="round" stroke-linejoin="round" fill="none" stroke="#000000" d="M35.5 0C35.5 19.60611 19.60611 35.5 0 35.5-19.60611 35.5-35.5 19.60611-35.5 0-35.5-19.60611-19.60611-35.5 0-35.5 19.60611-35.5 35.5-19.60611 35.5 0"/>
<path transform="matrix(.12,0,0,-.12,294.3401,2003.7)" stroke-width="6" stroke-linecap="round" stroke-linejoin="round" fill="none" stroke="#000000" d="M35.5 0C35.5 19.60611 19.60611 35.5 0 35.5-19.60611 35.5-35.5 19.60611-35.5 0-35.5-19.60611-19.60611-35.5 0-35.5 19.60611-35.5 35.5-19.60611 35.5 0"/>
<path transform="matrix(.12,0,0,-.12,81.82007,2088.78)" stroke-width="6" stroke-linecap="round" stroke-linejoin="round" fill="none" stroke="#000000" d="M35.5 0C35.5 19.60611 19.60611 35.5 0 35.5-19.60611 35.5-35.5 19.60611-35.5 0-35.5-19.60611-19.60611-35.5 0-35.5 19.60611-35.5 35.5-19.60611 35.5 0"/>
<path transform="matrix(.12,0,0,-.12,294.3401,2088.78)" stroke-width="6" stroke-linecap="round" stroke-linejoin="round" fill="none" stroke="#000000" d="M35.5 0C35.5 19.60611 19.60611 35.5 0 35.5-19.60611 35.5-35.5 19.60611-35.5 0-35.5-19.60611-19.60611-35.5 0-35.5 19.60611-35.5 35.5-19.60611 35.5 0"/>
<path transform="matrix(.12,0,0,-.12,81.82007,2173.74)" stroke-width="6" stroke-linecap="round" stroke-linejoin="round" fill="none" stroke="#000000" d="M35.5 0C35.5 19.60611 19.60611 35.5 0 35.5-19.60611 35.5-35.5 19.60611-35.5 0-35.5-19.60611-19.60611-35.5 0-35.5 19.60611-35.5 35.5-19.60611 35.5 0"/>
<path transform="matrix(.12,0,0,-.12,294.3401,2173.74)" stroke-width="6" stroke-linecap="round" stroke-linejoin="round" fill="none" stroke="#000000" d="M35.5 0C35.5 19.60611 19.60611 35.5 0 35.5-19.60611 35.5-35.5 19.60611-35.5 0-35.5-19.60611-19.60611-35.5 0-35.5 19.60611-35.5 35.5-19.60611 35.5 0"/>
<path transform="matrix(.12,0,0,-.12,81.82007,2258.82)" stroke-width="6" stroke-linecap="round" stroke-linejoin="round" fill="none" stroke="#000000" d="M35.5 0C35.5 19.60611 19.60611 35.5 0 35.5-19.60611 35.5-35.5 19.60611-35.5 0-35.5-19.60611-19.60611-35.5 0-35.5 19.60611-35.5 35.5-19.60611 35.5 0"/>
<path transform="matrix(.12,0,0,-.12,294.3401,2258.82)" stroke-width="6" stroke-linecap="round" stroke-linejoin="round" fill="none" stroke="#000000" d="M35.5 0C35.5 19.60611 19.60611 35.5 0 35.5-19.60611 35.5-35.5 19.60611-35.5 0-35.5-19.60611-19.60611-35.5 0-35.5 19.60611-35.5 35.5-19.60611 35.5 0"/>
<path transform="matrix(0,-.12,-.12,-0,1636,2370)" stroke-width="6" stroke-linecap="round" stroke-linejoin="round" fill="none" stroke="#000000" d="M926 13069 505 12951"/>
<path transform="matrix(0,-.12,-.12,-0,1636,2370)" stroke-width="6" stroke-linecap="round" stroke-linejoin="round" fill="none" stroke="#000000" d="M926 11061 505 11180"/>
<path transform="matrix(0,-.12,-.12,-0,1636,2370)" stroke-width="6" stroke-linecap="round" stroke-linejoin="round" fill="none" stroke="#000000" d="M4520 12065 4993 11593V12065 12537L4659 12203 4520 12065"/>
</g>
</g>
</svg>
