<svg xmlns="http://www.w3.org/2000/svg" xmlns:xlink="http://www.w3.org/1999/xlink" xmlns:inkscape="http://www.inkscape.org/namespaces/inkscape" version="1.1" width="1684" height="2384" viewBox="0 0 1684 2384">
<defs>
<clipPath id="clip_0">
<path transform="matrix(.12,0,0,-.12,14,2356)" d="M273 0H6541V6273H273V0"/>
</clipPath>
</defs>
<g clip-path="url(#clip_0)">
<g inkscape:groupmode="layer" inkscape:label="0">
<path transform="matrix(.12,0,0,-.12,14,2356)" stroke-width="6" stroke-linecap="round" stroke-linejoin="round" fill="none" stroke="#000000" d="M3902 3584 4236 3918V4627L3902 4961H2012L1678 4627V3918L2012 3584"/>
<path transform="matrix(.12,0,0,-.12,14,2356)" stroke-width="6" stroke-linecap="round" stroke-linejoin="round" fill="none" stroke="#000000" d="M2012 3584V237H3902V3584"/>
<path transform="matrix(.12,0,0,-.12,14,2356)" stroke-width="6" stroke-linecap="round" stroke-linejoin="round" fill="none" stroke="#000000" d="M1881 4627.5C1881 4647.106 1865.1061 4663 1845.5 4663 1825.8939 4663 1810 4647.106 1810 4627.5 1810 4607.894 1825.8939 4592 1845.5 4592 1865.1061 4592 1881 4607.894 1881 4627.5"/>
<path transform="matrix(.12,0,0,-.12,14,2356)" stroke-width="6" stroke-linecap="round" stroke-linejoin="round" fill="none" stroke="#000000" d="M1881 4272.5C1881 4292.106 1865.1061 4308 1845.5 4308 1825.8939 4308 1810 4292.106 1810 4272.5 1810 4252.894 1825.8939 4237 1845.5 4237 1865.1061 4237 1881 4252.894 1881 4272.5"/>
<path transform="matrix(.12,0,0,-.12,14,2356)" stroke-width="6" stroke-linecap="round" stroke-linejoin="round" fill="none" stroke="#000000" d="M2166 4627.5C2166 4647.106 2150.1063 4663 2130.5 4663 2110.8939 4663 2095 4647.106 2095 4627.5 2095 4607.894 2110.8939 4592 2130.5 4592 2150.1063 4592 2166 4607.894 2166 4627.5"/>
<path transform="matrix(.12,0,0,-.12,14,2356)" stroke-width="6" stroke-linecap="round" stroke-linejoin="round" fill="none" stroke="#000000" d="M1881 3918.5C1881 3938.1063 1865.1061 3954 1845.5 3954 1825.8939 3954 1810 3938.1063 1810 3918.5 1810 3898.8939 1825.8939 3883 1845.5 3883 1865.1061 3883 1881 3898.8939 1881 3918.5"/>
<path transform="matrix(.12,0,0,-.12,14,2356)" stroke-width="6" stroke-linecap="round" stroke-linejoin="round" fill="none" stroke="#000000" d="M3820 4627.5C3820 4647.106 3804.1063 4663 3784.5 4663 3764.8939 4663 3749 4647.106 3749 4627.5 3749 4607.894 3764.8939 4592 3784.5 4592 3804.1063 4592 3820 4607.894 3820 4627.5"/>
<path transform="matrix(.12,0,0,-.12,14,2356)" stroke-width="6" stroke-linecap="round" stroke-linejoin="round" fill="none" stroke="#000000" d="M4105 4627.5C4105 4647.106 4089.1063 4663 4069.5 4663 4049.8939 4663 4034 4647.106 4034 4627.5 4034 4607.894 4049.8939 4592 4069.5 4592 4089.1063 4592 4105 4607.894 4105 4627.5"/>
<path transform="matrix(.12,0,0,-.12,14,2356)" stroke-width="6" stroke-linecap="round" stroke-linejoin="round" fill="none" stroke="#000000" d="M4105 4272.5C4105 4292.106 4089.1063 4308 4069.5 4308 4049.8939 4308 4034 4292.106 4034 4272.5 4034 4252.894 4049.8939 4237 4069.5 4237 4089.1063 4237 4105 4252.894 4105 4272.5"/>
<path transform="matrix(.12,0,0,-.12,14,2356)" stroke-width="6" stroke-linecap="round" stroke-linejoin="round" fill="none" stroke="#000000" d="M4105 3918.5C4105 3938.1063 4089.1063 3954 4069.5 3954 4049.8939 3954 4034 3938.1063 4034 3918.5 4034 3898.8939 4049.8939 3883 4069.5 3883 4089.1063 3883 4105 3898.8939 4105 3918.5"/>
<path transform="matrix(.12,0,0,-.12,14,2356)" stroke-width="6" stroke-linecap="round" stroke-linejoin="round" fill="none" stroke="#000000" d="M3820 2599.5C3820 2619.1063 3804.1063 2635 3784.5 2635 3764.8939 2635 3749 2619.1063 3749 2599.5 3749 2579.8939 3764.8939 2564 3784.5 2564 3804.1063 2564 3820 2579.8939 3820 2599.5"/>
<path transform="matrix(.12,0,0,-.12,14,2356)" stroke-width="6" stroke-linecap="round" stroke-linejoin="round" fill="none" stroke="#000000" d="M2166 2599.5C2166 2619.1063 2150.1063 2635 2130.5 2635 2110.8939 2635 2095 2619.1063 2095 2599.5 2095 2579.8939 2110.8939 2564 2130.5 2564 2150.1063 2564 2166 2579.8939 2166 2599.5"/>
<path transform="matrix(.12,0,0,-.12,14,2356)" stroke-width="6" stroke-linecap="round" stroke-linejoin="round" fill="none" stroke="#000000" d="M2166 1249.5C2166 1269.1061 2150.1063 1285 2130.5 1285 2110.8939 1285 2095 1269.1061 2095 1249.5 2095 1229.8939 2110.8939 1214 2130.5 1214 2150.1063 1214 2166 1229.8939 2166 1249.5"/>
<path transform="matrix(.12,0,0,-.12,14,2356)" stroke-width="6" stroke-linecap="round" stroke-linejoin="round" fill="none" stroke="#000000" d="M3820 1249.5C3820 1269.1061 3804.1063 1285 3784.5 1285 3764.8939 1285 3749 1269.1061 3749 1249.5 3749 1229.8939 3764.8939 1214 3784.5 1214 3804.1063 1214 3820 1229.8939 3820 1249.5"/>
<path transform="matrix(.12,0,0,-.12,14,2356)" stroke-width="6" stroke-linecap="round" stroke-linejoin="round" fill="none" stroke="#000000" d="M3548 4627 2957 4041 2367 4627H2957 3548"/>
<path transform="matrix(.12,0,0,-.12,14,2356)" stroke-width="6" stroke-linecap="round" stroke-linejoin="round" fill="none" stroke="#000000" d="M3564 3500 3146 3918 3564 4336V3500"/>
<path transform="matrix(.12,0,0,-.12,14,2356)" stroke-width="6" stroke-linecap="round" stroke-linejoin="round" fill="none" stroke="#000000" d="M2351 3516 2768 3918 2351 4335V3918"/>
<path transform="matrix(.12,0,0,-.12,14,2356)" stroke-width="6" stroke-linecap="round" stroke-linejoin="round" fill="none" stroke="#000000" d="M2957 3795 2366 3204H3548L2957 3795"/>
<path transform="matrix(.12,0,0,-.12,14,2356)" stroke-width="6" stroke-linecap="round" stroke-linejoin="round" fill="none" stroke="#000000" d="M2351 3918V3516"/>
</g>
</g>
</svg>
